<?xml version="1.0"?>
<svg xmlns="http://www.w3.org/2000/svg" id="_x33_0" enable-background="new 0 0 64 64" height="512px" viewBox="0 0 64 64" width="512px"><g><path d="m32 45c-1.654 0-3 1.346-3 3s1.346 3 3 3 3-1.346 3-3-1.346-3-3-3zm0 4c-.551 0-1-.449-1-1s.449-1 1-1 1 .449 1 1-.449 1-1 1z" data-original="#000000" class="active-path" data-old_color="#000000" fill="#B0914F"/><path d="m32 41c-3.86 0-7 3.14-7 7s3.14 7 7 7 7-3.14 7-7-3.14-7-7-7zm0 12c-2.757 0-5-2.243-5-5s2.243-5 5-5 5 2.243 5 5-2.243 5-5 5z" data-original="#000000" class="active-path" data-old_color="#000000" fill="#B0914F"/><path d="m43 15h2v2h-2z" data-original="#000000" class="active-path" data-old_color="#000000" fill="#B0914F"/><path d="m47 15h2v2h-2z" data-original="#000000" class="active-path" data-old_color="#000000" fill="#B0914F"/><path d="m1 1v25.384l9 10v4.616c0 12.131 9.869 22 22 22s22-9.869 22-22v-4.616l9-10v-25.384zm60 2v8h-58v-8zm-58 22v-12h36v3c0 3.86 3.14 7 7 7s7-3.14 7-7v-3h8v12zm38-12h10v3c0 2.757-2.243 5-5 5s-5-2.243-5-5zm-29 24h11.952c-.461 5.547-4.709 10.414-10.351 11.832-1.029-2.407-1.601-5.053-1.601-7.832zm20 24c-7.521 0-14.079-4.177-17.494-10.329 6.307-1.772 10.993-7.356 11.446-13.671h12.096c.454 6.315 5.139 11.899 11.446 13.671-3.415 6.152-9.973 10.329-17.494 10.329zm18.399-12.168c-5.642-1.418-9.89-6.285-10.351-11.832h11.952v4c0 2.779-.572 5.425-1.601 7.832zm2.156-13.832h-41.11l-7.2-8h55.509z" data-original="#000000" class="active-path" data-old_color="#000000" fill="#B0914F"/></g> </svg>
