<?xml version="1.0"?>
<svg xmlns="http://www.w3.org/2000/svg" xmlns:xlink="http://www.w3.org/1999/xlink" version="1.1" id="Capa_1" x="0px" y="0px" viewBox="0 0 511.998 511.998" style="enable-background:new 0 0 511.998 511.998;" xml:space="preserve" width="512px" height="512px" class=""><g transform="matrix(-0.998801, 2.46223e-32, 2.46223e-32, 0.998801, 511.691, 0.307029)">
	
		<path d="M336.801,115.023c0,0-0.059,0.042-0.173,0.122c0.114,0.081,0.173,0.122,0.173,0.122s0.06-0.041,0.173-0.122    C336.86,115.066,336.801,115.023,336.801,115.023z" data-original="#000000" class="active-path" fill="#000000"/>

		<path d="M417.098,286.11c-0.13-0.64-0.33-1.27-0.58-1.88c-0.25-0.6-0.55-1.18-0.91-1.72c-0.369-0.55-0.79-1.06-1.25-1.52    c-0.46-0.46-0.97-0.88-1.52-1.24c-0.54-0.36-1.12-0.67-1.73-0.92c-0.599-0.25-1.229-0.45-1.869-0.57c-1.29-0.26-2.61-0.26-3.9,0    c-0.64,0.12-1.27,0.32-1.87,0.57c-0.61,0.25-1.189,0.56-1.729,0.92c-0.551,0.36-1.061,0.78-1.521,1.24    c-0.46,0.46-0.88,0.97-1.24,1.52c-0.36,0.54-0.67,1.12-0.92,1.72c-0.25,0.61-0.45,1.24-0.569,1.88c-0.131,0.64-0.2,1.3-0.2,1.95    s0.069,1.31,0.2,1.95c0.119,0.64,0.319,1.27,0.569,1.87c0.25,0.61,0.561,1.19,0.92,1.73c0.36,0.55,0.78,1.06,1.24,1.52    c0.46,0.46,0.97,0.88,1.521,1.24c0.54,0.36,1.119,0.67,1.729,0.92c0.599,0.25,1.23,0.45,1.87,0.58c0.639,0.13,1.3,0.19,1.95,0.19    c2.63,0,5.21-1.07,7.069-2.93c0.46-0.46,0.881-0.97,1.25-1.52c0.36-0.54,0.66-1.12,0.91-1.73c0.25-0.6,0.45-1.23,0.58-1.87    c0.129-0.64,0.19-1.3,0.19-1.95C417.288,287.41,417.228,286.75,417.098,286.11z" data-original="#000000" class="active-path" fill="#000000"/>

		<path d="M445.511,81.939c1.07-4.024-0.466-8.289-3.854-10.708c-1.412-1.008-32.09-22.577-61.672-17.704    c-5.576-29.342-36.07-50.766-37.493-51.75c-3.424-2.369-7.957-2.369-11.381,0c-1.423,0.985-31.917,22.408-37.493,51.75    c-29.585-4.874-60.26,16.696-61.672,17.704c-3.389,2.419-4.924,6.684-3.855,10.708c0.37,1.392,8.256,30.302,28.243,47.273    c-13.493,22.719-11.275,52.919-11.15,54.47c0.334,4.15,3.205,7.659,7.206,8.808c0.98,0.282,13.815,3.875,29.565,3.875    c13.704,0,29.615-2.722,41.83-12.715c5.56-4.549,9.795-10.146,13.016-16.161c3.22,6.016,7.455,11.613,13.016,16.161    c12.217,9.995,28.125,12.715,41.83,12.715c15.747,0,28.587-3.593,29.565-3.875c4.001-1.149,6.872-4.658,7.206-8.808    c0.125-1.551,2.343-31.751-11.15-54.471C437.254,112.241,445.141,83.331,445.511,81.939z M249.727,83.651    c11.202-6.34,30.803-14.448,45.699-9.087c12.111,4.36,20.946,17.569,26.292,28.819c-14.924-1.579-36.309-1.048-52.163,10.847    C259.292,105.773,252.865,91.922,249.727,83.651z M311.121,168.17c-12.265,10.033-33.485,8.918-46.147,6.673    c0.31-12.865,3.422-33.879,15.684-43.91c12.265-10.033,33.488-8.916,46.146-6.673C326.495,137.124,323.383,158.139,311.121,168.17    z M336.801,88.956c-5.367-9.866-13.189-20.684-24.01-27.855c0.872-15.295,14.526-30.252,23.963-38.37    c8.364,7.202,23.164,22.152,24.059,38.369C349.991,68.272,342.168,79.09,336.801,88.956z M362.48,168.17    c-12.245-10.018-15.365-30.988-15.683-43.849c11.211-1.973,33.142-4.026,46.146,6.611c12.265,10.034,15.375,31.055,15.685,43.91    C395.958,177.088,374.741,178.202,362.48,168.17z M404.031,114.218c-15.838-11.871-37.184-12.413-52.1-10.84    c5.027-10.701,13.627-24.272,26.245-28.815c14.915-5.366,34.552,2.77,45.739,9.11C420.442,92.806,413.77,106.128,404.031,114.218z    " data-original="#000000" class="active-path"/>

		<path d="M488.499,246.704H196.312L99.755,136.301c-8.067-9.224-19.718-14.749-31.965-15.158    c-12.267-0.416-24.241,4.326-32.905,12.99c-8.665,8.665-13.399,20.659-12.99,32.906s5.935,23.898,15.158,31.964l54.539,47.7    H23.499c-5.522,0-10,4.477-10,10s4.478,10,10,10h11.884c2.318,19.059,7.085,37.681,14.212,55.479    c0.003,0.008,0.006,0.016,0.01,0.023c16.32,40.747,44.117,75.503,80.386,100.508c12.328,8.499,25.363,15.668,38.934,21.455    c-13.178,5.048-22.559,17.83-22.559,32.762c0,19.336,15.731,35.068,35.067,35.068h149.131c19.336,0,35.067-15.731,35.067-35.068    c0-14.932-9.381-27.714-22.559-32.762c13.571-5.786,26.606-12.956,38.934-21.455c36.269-25.006,64.066-59.76,80.386-100.508    c0.003-0.008,0.006-0.016,0.009-0.023c7.127-17.799,11.895-36.421,14.212-55.479h11.886c5.522,0,10-4.477,10-10    C498.499,251.181,494.021,246.704,488.499,246.704z M50.219,183.949c-5.146-4.501-8.106-10.744-8.335-17.577    c-0.229-6.835,2.309-13.261,7.144-18.096c4.835-4.835,11.242-7.382,18.095-7.144c6.834,0.228,13.076,3.189,17.578,8.336    l85.041,97.235h-47.77L50.219,183.949z M345.631,476.932c0,8.309-6.758,15.068-15.067,15.068h-149.13    c-8.309,0-15.067-6.759-15.067-15.068c0-8.309,6.759-15.068,15.067-15.068h149.13    C338.873,461.864,345.631,468.623,345.631,476.932z M255.999,441.864c-78.151,0-147.957-44.041-181.759-113.398h363.518    C403.956,397.824,334.15,441.864,255.999,441.864z M446.23,308.466H65.768c-1.245-3.438-2.395-6.908-3.449-10.406h308.025    c5.522,0,10-4.477,10-10s-4.478-10-10-10H57.396c-0.724-3.763-1.341-7.55-1.85-11.356h400.906    C454.543,280.973,451.12,294.96,446.23,308.466z" data-original="#000000" class="active-path" fill="#000000"/>
 </svg>
