<?xml version="1.0"?>
<svg xmlns="http://www.w3.org/2000/svg" xmlns:xlink="http://www.w3.org/1999/xlink" version="1.1" id="Capa_1" x="0px" y="0px" viewBox="0 0 612.001 612.001" style="enable-background:new 0 0 612.001 612.001;" xml:space="preserve" width="512px" height="512px"><g><g>
	<path d="M606.832,5.172c-3.64-3.636-8.68-5.51-13.809-5.121L360.856,17.546c-4.208,0.316-8.171,2.131-11.154,5.117L5.172,367.19   c-6.896,6.896-6.896,18.073,0,24.965L219.845,606.83c6.896,6.892,18.073,6.894,24.969,0l344.525-344.528   c2.987-2.985,4.805-6.942,5.119-11.156l17.493-232.168C612.336,13.853,610.469,8.812,606.832,5.172z M505.579,173.379   c-18.49,18.486-48.47,18.486-66.956,0c-18.486-18.488-18.483-48.464,0.004-66.952c18.483-18.488,48.462-18.488,66.952,0   C524.066,124.913,524.066,154.889,505.579,173.379z" data-original="#000000" class="active-path" data-old_color="#000000" fill="#B0914F"/>
</g></g> </svg>
