<?xml version="1.0"?>
<svg xmlns="http://www.w3.org/2000/svg" height="512px" viewBox="0 0 496 496" width="512px" class="hovered-paths"><g><path d="m456 0h-304c-22.054688 0-40 17.945312-40 40v200h-96c-8.824219 0-16 7.175781-16 16v16c0 8.824219 7.175781 16 16 16h.023438v.640625l13.640624 170.550781c1.664063 20.640625 19.167969 36.808594 39.871094 36.808594h370.464844c13.230469 0 24-10.769531 24-24v-24.808594c18.230469-3.71875 32-19.871094 32-39.191406v-368c0-22.054688-17.945312-40-40-40zm24 40v136h-192v-80h136c13.230469 0 24-10.769531 24-24v-56h8c13.230469 0 24 10.769531 24 24zm-304-24h256v56c0 4.40625-3.585938 8-8 8h-27.054688l-16-32h-153.890624l-16 32h-27.054688c-4.414062 0-8-3.59375-8-8zm60.945312 48h134.109376l8 16h-150.109376zm-84.945312-48h8v56c0 13.230469 10.769531 24 24 24h88v80h-144v-136c0-13.230469 10.769531-24 24-24zm-136 240h208l.015625 16h-208.015625zm99.929688 32h8.132812l28 30.945312-32.0625 35.445313-32.070312-35.445313zm-38.785157 19.023438-17.214843-19.023438h34.429687zm41.832031 140.976562-31.046874-34.320312 32.070312-35.449219 32.070312 35.449219-31.046874 34.320312zm11.808594-81.6875 32.070313-35.449219 32.074219 35.449219-32.074219 35.449219zm42.855469-47.367188 28-30.945312h6.328125l-5.066406 63.296875zm-10.785156-11.921874-17.214844-19.023438h34.429687zm-53.640625 59.289062-32.070313 35.449219-32.074219-35.449219 32.074219-35.449219zm-42.855469 47.367188-22.3125 24.65625-4.335937-54.105469zm10.785156 11.921874 20.261719 22.398438h-40.527344zm85.710938 0 20.265625 22.398438h-40.527344zm33.097656 12.734376-22.304687-24.65625 26.632812-29.441407zm28.046875-150.335938c8.824219 0 16-7.175781 16-16v-16c0-1.28125-.191406-2.503906-.472656-3.695312 16.640625-17.984376 39.824218-28.304688 64.472656-28.304688 48.519531 0 88 39.480469 88 88s-39.480469 88-88 88c-38.328125 0-72.65625-25.375-84-61.839844zm-185.640625 0 28 30.945312-29.289063 32.367188-5.070312-63.3125zm129.640625 192h-98.464844c-10.277344 0-19.160156-6.6875-22.511718-16h145.945312c-3.351562 9.3125-12.234375 16-22.511719 16zm272 0h-237.632812c4.457031-5.878906 7.34375-13.023438 7.96875-20.808594l.894531-11.191406h236.769531v24c0 4.414062-3.585938 8-8 8zm16-48h-243.496094l4.984375-62.464844c18.976563 28.3125 51.304688 46.464844 86.511719 46.464844 57.34375 0 104-46.65625 104-104s-46.65625-104-104-104c-28.800781 0-55.886719 11.921875-75.519531 32.71875-1.433594-.421875-2.914063-.71875-4.480469-.71875h-96v-48h352v216c0 13.230469-10.769531 24-24 24zm0 0" data-original="#000000" class="hovered-path active-path" data-old_color="#000000" fill="#B0914F"/><path d="m168 160c13.230469 0 24-10.769531 24-24s-10.769531-24-24-24-24 10.769531-24 24 10.769531 24 24 24zm0-32c4.414062 0 8 3.59375 8 8s-3.585938 8-8 8-8-3.59375-8-8 3.585938-8 8-8zm0 0" data-original="#000000" class="hovered-path active-path" data-old_color="#000000" fill="#B0914F"/><path d="m232 160c13.230469 0 24-10.769531 24-24s-10.769531-24-24-24-24 10.769531-24 24 10.769531 24 24 24zm0-32c4.414062 0 8 3.59375 8 8s-3.585938 8-8 8-8-3.59375-8-8 3.585938-8 8-8zm0 0" data-original="#000000" class="hovered-path active-path" data-old_color="#000000" fill="#B0914F"/><path d="m304 112h16v16h-16zm0 0" data-original="#000000" class="hovered-path active-path" data-old_color="#000000" fill="#B0914F"/><path d="m304 144h16v16h-16zm0 0" data-original="#000000" class="hovered-path active-path" data-old_color="#000000" fill="#B0914F"/><path d="m336 112h16v16h-16zm0 0" data-original="#000000" class="hovered-path active-path" data-old_color="#000000" fill="#B0914F"/><path d="m336 144h16v16h-16zm0 0" data-original="#000000" class="hovered-path active-path" data-old_color="#000000" fill="#B0914F"/><path d="m368 160h96v-48h-96zm16-32h64v16h-64zm0 0" data-original="#000000" class="hovered-path active-path" data-old_color="#000000" fill="#B0914F"/><path d="m304 384c39.703125 0 72-32.296875 72-72s-32.296875-72-72-72-72 32.296875-72 72 32.296875 72 72 72zm0-128c30.871094 0 56 25.128906 56 56s-25.128906 56-56 56-56-25.128906-56-56 25.128906-56 56-56zm0 0" data-original="#000000" class="hovered-path active-path" data-old_color="#000000" fill="#B0914F"/></g> </svg>
